
<svg xmlns="http://www.w3.org/2000/svg" version="1.1" xmlns:xlink="http://www.w3.org/1999/xlink" preserveAspectRatio="none" x="0px" y="0px" width="128px" height="128px" viewBox="0 0 128 128">
<defs>
<g id="missing_1_Layer2_0_FILL">
<path fill="#102256" stroke="none" d="
M 128 0
L 0 0 0 128 128 128 128 0 Z"/>
</g>

<g id="missing_1_Layer1_0_FILL">
<path fill="#0B1043" stroke="none" d="
M 128 28.8
L 128 0 0 0 0 32.5
Q 6.464453125 20.2341796875 18.65 22.4 30.83515625 24.61484375 33.3 36.75 38.514453125 27.8859375 46.35 29.05 54.23671875 30.2583984375 58.7 36.95 69.317578125 21.3650390625 83.3 34.3 97.723046875 28.5931640625 102.1 42.95 101.630859375 35.8345703125 107.5 34.05 113.3654296875 32.3166015625 117.05 38.95 119.0609375 26.7513671875 128 28.8 Z"/>

<path fill="#183A65" stroke="none" d="
M 115.35 61.85
Q 106.86484375 63.3634765625 105.7 74.65 90.2279296875 74.03359375 83.35 90 77.7228515625 82.1443359375 70.6 81.85
L 69.2 95.4 60.15 100.7 50.85 94.9 50.15 87.6
Q 47.559765625 89.38671875 45.9 93.7 45.9404296875 84.1490234375 37.85 82.4 29.814453125 80.6505859375 24.15 89.1 21.9189453125 63.2845703125 0 67.35
L 0 128 128 128 128 67.4
Q 124.046484375 60.1390625 115.35 61.85 Z"/>
</g>

<g id="missing_1_Layer0_0_FILL">
<path fill="#183A65" stroke="none" d="
M 59.55 88.5
L 51.6 85.15 52.9 93.2 60.3 97.5 67.6 93.95 68.7 85 59.55 88.5
M 84.2 58
L 85.2 55.15
Q 67.66953125 61.926171875 55.6 60.85
L 52.35 76.55 68.05 78.15 64.9 63.15 84.2 58 Z"/>

<path fill="#1E5577" stroke="none" d="
M 51.6 85.15
L 59.55 88.5 68.7 85 59.85 82.65 51.6 85.15
M 85.2 55.15
L 91.95 40.85 59.6 25.8 34.15 44 42.2 54 60.6 41.6 74.9 47.8 73.5 53.55 55.95 59.25 55.6 60.85
Q 67.66953125 61.926171875 85.2 55.15 Z"/>
</g>
</defs>

<g transform="matrix( 1, 0, 0, 1, 0,0) ">
<g transform="matrix( 1, 0, 0, 1, 0,0) ">
<use xlink:href="#missing_1_Layer2_0_FILL"/>
</g>

<g transform="matrix( 1, 0, 0, 1, 0,0) ">
<use xlink:href="#missing_1_Layer1_0_FILL"/>
</g>

<g transform="matrix( 1, 0, 0, 1, 0,0) ">
<use xlink:href="#missing_1_Layer0_0_FILL"/>
</g>
</g>
</svg>
